<mxfile host="app.diagrams.net" agent="Mozilla/5.0 (Windows NT 10.0; Win64; x64) AppleWebKit/537.36 (KHTML, like Gecko) Chrome/133.0.0.0 Safari/537.36" version="26.0.16">
  <diagram name="Seite-1" id="dEDuY9L8mdKCXcSAHP0k">
    <mxGraphModel dx="1366" dy="703" grid="1" gridSize="10" guides="1" tooltips="1" connect="1" arrows="1" fold="1" page="1" pageScale="1" pageWidth="827" pageHeight="1169" math="0" shadow="0">
      <root>
        <mxCell id="0" />
        <mxCell id="1" parent="0" />
        <mxCell id="odoZfuetOvr2bprtWyBz-7" value="ContentView" style="rounded=1;whiteSpace=wrap;html=1;" vertex="1" parent="1">
          <mxGeometry x="360" y="200" width="120" height="60" as="geometry" />
        </mxCell>
        <mxCell id="odoZfuetOvr2bprtWyBz-24" value="" style="edgeStyle=orthogonalEdgeStyle;rounded=0;orthogonalLoop=1;jettySize=auto;html=1;endArrow=none;startFill=0;" edge="1" parent="1" source="odoZfuetOvr2bprtWyBz-8" target="odoZfuetOvr2bprtWyBz-7">
          <mxGeometry relative="1" as="geometry" />
        </mxCell>
        <mxCell id="odoZfuetOvr2bprtWyBz-8" value="ZStack" style="rounded=1;whiteSpace=wrap;html=1;" vertex="1" parent="1">
          <mxGeometry x="360" y="280" width="120" height="60" as="geometry" />
        </mxCell>
        <mxCell id="odoZfuetOvr2bprtWyBz-23" style="edgeStyle=orthogonalEdgeStyle;rounded=0;orthogonalLoop=1;jettySize=auto;html=1;entryX=0.5;entryY=1;entryDx=0;entryDy=0;curved=1;endArrow=none;startFill=0;" edge="1" parent="1" source="odoZfuetOvr2bprtWyBz-9" target="odoZfuetOvr2bprtWyBz-8">
          <mxGeometry relative="1" as="geometry" />
        </mxCell>
        <mxCell id="odoZfuetOvr2bprtWyBz-9" value="ARView" style="rounded=1;whiteSpace=wrap;html=1;" vertex="1" parent="1">
          <mxGeometry x="280" y="400" width="120" height="60" as="geometry" />
        </mxCell>
        <mxCell id="odoZfuetOvr2bprtWyBz-22" style="edgeStyle=orthogonalEdgeStyle;rounded=0;orthogonalLoop=1;jettySize=auto;html=1;entryX=0.5;entryY=1;entryDx=0;entryDy=0;curved=1;endArrow=none;startFill=0;" edge="1" parent="1" source="odoZfuetOvr2bprtWyBz-10" target="odoZfuetOvr2bprtWyBz-8">
          <mxGeometry relative="1" as="geometry" />
        </mxCell>
        <mxCell id="odoZfuetOvr2bprtWyBz-10" value="VStack" style="rounded=1;whiteSpace=wrap;html=1;" vertex="1" parent="1">
          <mxGeometry x="440" y="400" width="120" height="60" as="geometry" />
        </mxCell>
        <mxCell id="odoZfuetOvr2bprtWyBz-21" style="edgeStyle=orthogonalEdgeStyle;rounded=0;orthogonalLoop=1;jettySize=auto;html=1;entryX=0.5;entryY=1;entryDx=0;entryDy=0;exitX=0.5;exitY=0;exitDx=0;exitDy=0;endArrow=none;startFill=0;curved=1;" edge="1" parent="1" source="odoZfuetOvr2bprtWyBz-11" target="odoZfuetOvr2bprtWyBz-10">
          <mxGeometry relative="1" as="geometry" />
        </mxCell>
        <mxCell id="odoZfuetOvr2bprtWyBz-11" value="InfoCard" style="rounded=1;whiteSpace=wrap;html=1;" vertex="1" parent="1">
          <mxGeometry x="520" y="520" width="120" height="60" as="geometry" />
        </mxCell>
        <mxCell id="odoZfuetOvr2bprtWyBz-20" style="edgeStyle=orthogonalEdgeStyle;rounded=0;orthogonalLoop=1;jettySize=auto;html=1;exitX=0.5;exitY=0;exitDx=0;exitDy=0;entryX=0.5;entryY=1;entryDx=0;entryDy=0;endArrow=none;startFill=0;curved=1;" edge="1" parent="1" source="odoZfuetOvr2bprtWyBz-12" target="odoZfuetOvr2bprtWyBz-10">
          <mxGeometry relative="1" as="geometry" />
        </mxCell>
        <mxCell id="odoZfuetOvr2bprtWyBz-12" value="HStack" style="rounded=1;whiteSpace=wrap;html=1;" vertex="1" parent="1">
          <mxGeometry x="360" y="520" width="120" height="60" as="geometry" />
        </mxCell>
        <mxCell id="odoZfuetOvr2bprtWyBz-16" style="edgeStyle=orthogonalEdgeStyle;rounded=0;orthogonalLoop=1;jettySize=auto;html=1;exitX=0.75;exitY=0;exitDx=0;exitDy=0;entryX=0.5;entryY=1;entryDx=0;entryDy=0;endArrow=none;startFill=0;curved=1;" edge="1" parent="1" source="odoZfuetOvr2bprtWyBz-13" target="odoZfuetOvr2bprtWyBz-12">
          <mxGeometry relative="1" as="geometry" />
        </mxCell>
        <mxCell id="odoZfuetOvr2bprtWyBz-13" value="ControlButton" style="rounded=1;whiteSpace=wrap;html=1;" vertex="1" parent="1">
          <mxGeometry x="220" y="640" width="120" height="60" as="geometry" />
        </mxCell>
        <mxCell id="odoZfuetOvr2bprtWyBz-17" value="" style="edgeStyle=orthogonalEdgeStyle;rounded=0;orthogonalLoop=1;jettySize=auto;html=1;endArrow=none;startFill=0;" edge="1" parent="1" source="odoZfuetOvr2bprtWyBz-14" target="odoZfuetOvr2bprtWyBz-12">
          <mxGeometry relative="1" as="geometry" />
        </mxCell>
        <mxCell id="odoZfuetOvr2bprtWyBz-14" value="ControlButton" style="rounded=1;whiteSpace=wrap;html=1;" vertex="1" parent="1">
          <mxGeometry x="360" y="640" width="120" height="60" as="geometry" />
        </mxCell>
        <mxCell id="odoZfuetOvr2bprtWyBz-18" style="edgeStyle=orthogonalEdgeStyle;rounded=0;orthogonalLoop=1;jettySize=auto;html=1;exitX=0.25;exitY=0;exitDx=0;exitDy=0;endArrow=none;startFill=0;curved=1;entryX=0.5;entryY=1;entryDx=0;entryDy=0;" edge="1" parent="1" source="odoZfuetOvr2bprtWyBz-15" target="odoZfuetOvr2bprtWyBz-12">
          <mxGeometry relative="1" as="geometry">
            <mxPoint x="440" y="590" as="targetPoint" />
          </mxGeometry>
        </mxCell>
        <mxCell id="odoZfuetOvr2bprtWyBz-15" value="ControlButton" style="rounded=1;whiteSpace=wrap;html=1;" vertex="1" parent="1">
          <mxGeometry x="500" y="640" width="120" height="60" as="geometry" />
        </mxCell>
      </root>
    </mxGraphModel>
  </diagram>
</mxfile>
